<svg width="105" height="35" viewBox="0 0 105 35" fill="none" xmlns="http://www.w3.org/2000/svg">
<g id="Frame" clip-path="url(#clip0_1319_838)">
<g id="Group">
<path id="Vector" d="M0.550797 6.22351V33.424H101.258L104.261 30.4174H3.53577L3.547 30.4057V3.1665L0.550797 6.22351Z" fill="#E31D19"/>
</g>
<g id="Group_2">
<path id="Vector_2" d="M9.54782 3.16646H17.2284C18.1854 3.16646 19.075 3.2785 19.8972 3.49922C20.7189 3.72162 21.4276 4.04933 22.0201 4.48293C22.6147 4.91838 23.0965 5.48919 23.4253 6.14784C23.7679 6.824 23.9408 7.61556 23.9408 8.52365C23.9408 9.75553 23.5865 10.7594 22.8794 11.5353C22.1718 12.3128 21.2563 12.8826 20.132 13.2461V13.3066C20.784 13.3432 21.4215 13.5131 22.005 13.8058C22.577 14.0913 23.0904 14.4812 23.5185 14.9553C23.9521 15.4411 24.2957 15.9999 24.5333 16.6056C24.7838 17.2314 24.9079 17.9076 24.9079 18.6336C24.9079 19.6027 24.7052 20.4553 24.2997 21.1914C23.8914 21.9301 23.3203 22.5666 22.6295 23.053C21.9207 23.5572 21.0991 23.9415 20.1623 24.2036C19.2261 24.4658 18.2158 24.5963 17.1347 24.5963H9.54726V3.16646H9.54782ZM12.5451 12.0658H16.6348C17.1964 12.0658 17.7272 12.0098 18.227 11.8989C18.7268 11.7879 19.1638 11.6019 19.5384 11.3387C19.9098 11.0804 20.2146 10.7382 20.428 10.3398C20.647 9.93703 20.7559 9.44238 20.7559 8.85753C20.7559 8.00938 20.4751 7.27328 19.9135 6.64698C19.3508 6.02236 18.4662 5.70864 17.2588 5.70864H12.5451V12.0658V12.0658ZM12.5451 22.0541H16.9471C17.4048 22.0541 17.9097 22.0093 18.4617 21.9175C19.005 21.8295 19.5281 21.6451 20.0062 21.3729C20.4884 21.0979 20.9044 20.7209 21.2249 20.2682C21.5562 19.8049 21.7242 19.1893 21.7242 18.4218C21.7242 17.1502 21.2973 16.1978 20.4437 15.5614C19.59 14.9256 18.4348 14.6074 16.978 14.6074H12.5451V22.0536V22.0541ZM39.9142 24.5969H37.1039V22.3869H37.0422C36.6878 23.1544 36.0739 23.7751 35.2001 24.249C34.3256 24.7229 33.3164 24.9593 32.1713 24.9593C31.4717 24.9641 30.7758 24.857 30.1102 24.6423C29.4794 24.4393 28.8995 24.1039 28.4096 23.6586C27.9199 23.2149 27.5296 22.6446 27.2381 21.9488C26.946 21.2525 26.8017 20.4307 26.8017 19.4817V10.2496H29.6114V18.7243C29.6114 19.3904 29.7052 19.9607 29.8923 20.4346C30.0798 20.9091 30.3292 21.2923 30.642 21.5853C30.9487 21.8745 31.3167 22.0914 31.7186 22.22C32.1269 22.3513 32.5533 22.4179 32.9823 22.4172C33.5663 22.4172 34.1077 22.3275 34.6064 22.1455C35.1055 21.9644 35.5547 21.6687 35.9178 21.2822C36.2924 20.8889 36.5839 20.3892 36.7922 19.7848C36.9995 19.1786 37.1039 18.4627 37.1039 17.6347V10.2485H39.9137V24.5963L39.9142 24.5969ZM42.1422 10.2491H44.9519V12.459H45.0137C45.2039 12.0719 45.4572 11.7191 45.7634 11.4148C46.0749 11.1023 46.4268 10.8325 46.8097 10.6126C47.2077 10.3854 47.6321 10.2076 48.0734 10.0832C48.5199 9.95364 48.9826 9.88744 49.4476 9.88661C49.9053 9.88661 50.3215 9.94712 50.6961 10.0681L50.5709 13.0036C50.3443 12.9435 50.1154 12.893 49.8846 12.8523C49.6578 12.8123 49.428 12.7921 49.1977 12.7918C47.824 12.7918 46.7727 13.1655 46.0443 13.9116C45.3158 14.659 44.9519 15.8191 44.9519 17.3933V24.5969H42.1422V10.2485V10.2491ZM55.3799 12.6097H52.1956V10.2491H55.3799V7.0408C55.3799 5.1238 55.7585 3.69641 56.5189 2.75751C57.2793 1.81918 58.584 1.34973 60.4378 1.34973C60.7495 1.34973 61.077 1.36094 61.4207 1.38054C61.7632 1.40071 62.1339 1.46121 62.5293 1.56205L62.2176 3.98435C61.9647 3.88781 61.7028 3.81651 61.4358 3.77147C61.1677 3.72979 60.8967 3.70956 60.6254 3.71097C60.1048 3.71097 59.6886 3.7866 59.377 3.93785C59.0747 4.08033 58.8198 4.30623 58.6424 4.58881C58.4655 4.87171 58.3498 5.20951 58.2987 5.60277C58.2436 6.04973 58.2174 6.49974 58.22 6.95005V10.2496H61.5616V12.6097H58.1891V24.5969H55.3799V12.6097V12.6097ZM62.2372 17.423C62.2372 16.3737 62.4394 15.3951 62.8455 14.4875C63.2436 13.5909 63.8106 12.7789 64.5157 12.0955C65.2233 11.4098 66.0562 10.8698 67.0132 10.4765C67.9702 10.0827 69.0013 9.88605 70.1043 9.88605C71.2068 9.88605 72.2385 10.0827 73.1954 10.4765C74.1524 10.8698 74.9853 11.4098 75.6929 12.0955C76.3983 12.7787 76.9653 13.5908 77.3632 14.4875C77.7692 15.3951 77.972 16.3737 77.972 17.423C77.972 18.4728 77.7692 19.4565 77.3632 20.3736C76.9704 21.2732 76.4027 22.0862 75.6929 22.7656C74.9853 23.4406 74.1524 23.9762 73.1954 24.37C72.2379 24.7633 71.2073 24.9599 70.1043 24.9599C69.0013 24.9599 67.9702 24.7638 67.0132 24.37C66.0562 23.9762 65.2233 23.4401 64.5157 22.7662C63.8062 22.0866 63.2385 21.2736 62.8455 20.3741C62.4394 19.4565 62.2372 18.4728 62.2372 17.423V17.423ZM65.2346 17.423C65.2346 18.1501 65.3486 18.8201 65.5772 19.4363C65.8057 20.052 66.1287 20.5758 66.5459 21.0099C66.9615 21.4441 67.4715 21.7869 68.0752 22.039C68.679 22.2911 69.3551 22.4177 70.1043 22.4177C70.8535 22.4177 71.5308 22.2917 72.1334 22.039C72.7372 21.7869 73.2471 21.4441 73.6644 21.0099C74.08 20.5758 74.4029 20.052 74.6315 19.4363C74.8601 18.8201 74.9746 18.1501 74.9746 17.423C74.9746 16.6964 74.8601 16.0258 74.6321 15.4096C74.4029 14.7951 74.08 14.2702 73.6644 13.8355C73.2471 13.4024 72.7372 13.0601 72.1334 12.8064C71.5303 12.5543 70.8535 12.4288 70.1043 12.4288C69.3551 12.4288 68.679 12.5548 68.0752 12.8064C67.4715 13.0601 66.9615 13.4024 66.5459 13.836C66.1287 14.2702 65.8057 14.7951 65.5777 15.4102C65.3486 16.0264 65.2346 16.6964 65.2346 17.423V17.423ZM79.8259 10.2491H82.635V12.459H82.6968C82.8875 12.0721 83.141 11.7193 83.4471 11.4148C83.7585 11.1021 84.1103 10.8323 84.4934 10.6126C84.8914 10.3854 85.3157 10.2076 85.757 10.0832C86.2032 9.95349 86.6655 9.88729 87.1302 9.88661C87.5879 9.88661 88.0052 9.94712 88.3798 10.0681L88.2545 13.0036C88.028 12.9435 87.7991 12.893 87.5682 12.8523C87.3415 12.8123 87.1117 12.7921 86.8814 12.7918C85.5077 12.7918 84.4564 13.1655 83.7279 13.9116C82.9984 14.659 82.635 15.8191 82.635 17.3933V24.5969H79.8259V10.2485V10.2491ZM104.255 24.5969H101.446V22.5382H101.384C100.841 23.3056 100.097 23.9006 99.1515 24.3246C98.2041 24.7481 97.2302 24.9593 96.2323 24.9593C95.0866 24.9593 94.0504 24.7689 93.1248 24.3846C92.1993 24.002 91.408 23.4659 90.7526 22.7807C90.0942 22.0911 89.5793 21.2781 89.2379 20.3887C88.8841 19.4812 88.7072 18.493 88.7072 17.423C88.7072 16.3536 88.8847 15.3603 89.2379 14.441C89.5917 13.5234 90.0972 12.7268 90.7526 12.0507C91.408 11.3745 92.1993 10.8451 93.1248 10.4614C94.0504 10.0782 95.0871 9.88661 96.2323 9.88661C97.2926 9.88661 98.2923 10.1034 99.2285 10.5364C100.165 10.9717 100.883 11.5616 101.384 12.3078H101.446V3.16646H104.255V24.5969V24.5969ZM96.5748 22.4172C97.324 22.4172 98.0002 22.2911 98.6039 22.039C99.2077 21.7869 99.7165 21.4441 100.135 21.0099C100.549 20.5763 100.873 20.052 101.102 19.4358C101.33 18.8207 101.446 18.1501 101.446 17.423C101.446 16.6964 101.33 16.0264 101.102 15.4102C100.873 14.7945 100.549 14.2707 100.135 13.836C99.7165 13.4024 99.2077 13.0596 98.6039 12.8069C98.0002 12.5548 97.3235 12.4288 96.5748 12.4288C95.8251 12.4288 95.15 12.5548 94.5452 12.8069C93.9409 13.059 93.4315 13.4024 93.0153 13.836C92.5986 14.2707 92.2763 14.7945 92.0477 15.4102C91.818 16.0264 91.704 16.6964 91.704 17.423C91.704 18.1501 91.818 18.8207 92.0477 19.4358C92.2763 20.052 92.5986 20.5763 93.0153 21.0099C93.4315 21.4441 93.9409 21.7875 94.5452 22.039C95.15 22.2911 95.8257 22.4172 96.5748 22.4172Z" fill="black"/>
</g>
</g>
<defs>
<clipPath id="clip0_1319_838">
<rect width="103.898" height="33.612" fill="white" transform="translate(0.550797 0.562622)"/>
</clipPath>
</defs>
</svg>
