<svg width="165" height="83" viewBox="0 0 165 83" fill="none" xmlns="http://www.w3.org/2000/svg">
<path d="M89.2317 49.9949H91.0295C91.4927 49.9949 91.7636 49.8722 91.9638 49.6665C92.1836 49.441 92.3013 49.1087 92.3013 48.7289C92.3013 48.3095 92.1914 47.993 91.9638 47.7794C91.6929 47.5262 91.3357 47.4589 90.8175 47.4589H89.2317V49.9949ZM87.3396 47.0475C87.3396 46.2602 87.7204 45.9199 88.4701 45.9199H91.2219C92.1326 45.9199 92.8862 46.1217 93.4162 46.6202C93.9147 47.087 94.213 47.7873 94.213 48.7289C94.213 50.2679 93.2827 51.5339 91.4299 51.5339H89.2317V53.5911C89.2317 54.1648 88.8666 54.5564 88.2856 54.5564C87.7008 54.5564 87.3357 54.1687 87.3357 53.5911V47.0475H87.3396Z" fill="#0078BF"/>
<path d="M100.054 49.9949H101.852C102.315 49.9949 102.586 49.8722 102.786 49.6665C103.006 49.441 103.124 49.1087 103.124 48.7289C103.124 48.3095 103.014 47.993 102.786 47.7794C102.515 47.5262 102.158 47.4589 101.636 47.4589H100.058V49.9949H100.054ZM98.1581 47.0475C98.1581 46.2602 98.5349 45.9199 99.2886 45.9199H102.04C102.951 45.9199 103.705 46.1217 104.235 46.6202C104.733 47.087 105.031 47.7873 105.031 48.7289C105.031 50.2679 104.101 51.5339 102.248 51.5339H100.054V53.5911C100.054 54.1648 99.689 54.5564 99.108 54.5564C98.5231 54.5564 98.162 54.1687 98.162 53.5911V47.0475H98.1581Z" fill="#0078BF"/>
<path d="M118.362 51.1976C119.304 50.7426 119.775 49.7931 119.775 48.6972C119.775 47.7596 119.477 47.087 118.978 46.6202C118.448 46.1256 117.695 45.9199 116.784 45.9199H114.013C113.259 45.9199 112.882 46.2602 112.882 47.0475V53.5871C112.882 54.1608 113.247 54.5525 113.832 54.5525C114.413 54.5525 114.778 54.1648 114.778 53.5871V51.4864H116.545L117.95 53.9828C118.15 54.3586 118.386 54.5485 118.841 54.5485C119.214 54.5485 119.705 54.323 119.705 53.6663C119.705 53.4882 119.63 53.3062 119.544 53.1599C119.434 52.9779 118.806 51.9334 118.362 51.1976ZM114.778 47.4589H116.38C116.953 47.4589 117.298 47.5657 117.526 47.7794C117.754 47.993 117.864 48.2778 117.864 48.7012C117.864 49.0928 117.746 49.4014 117.538 49.6151C117.306 49.8564 116.961 49.9553 116.529 49.9553H114.778V47.4589Z" fill="#0078BF"/>
<path fill-rule="evenodd" clip-rule="evenodd" d="M66.9157 46.8061C66.2719 46.1969 65.4829 45.9199 64.27 45.9199H61.9108C61.2356 45.9199 60.8313 46.1889 60.8313 47.0475V53.3419C60.8313 54.2004 61.2356 54.4694 61.9108 54.4694H64.4388C66.6645 54.4694 68.0972 53.0728 68.0972 50.2678C68.0972 48.7051 67.689 47.5341 66.9157 46.8061ZM65.5732 52.3488C65.2592 52.6891 64.8077 52.8592 64.1758 52.8592H62.7273V47.5262H63.9402C64.6311 47.5262 65.1139 47.6211 65.4986 48.0207C65.9304 48.4678 66.1777 49.2115 66.1777 50.2718C66.1777 51.1778 65.9775 51.9097 65.5732 52.3488Z" fill="#0078BF"/>
<path d="M82.582 52.9739C82.4878 52.7009 80.8587 48.0127 80.5997 47.261C80.4387 46.7902 80.2895 46.5133 80.0893 46.3076C79.8028 46.0109 79.4377 45.9238 79.0727 45.9238C78.6409 45.9238 78.3111 46.0663 78.0638 46.2997C77.8362 46.5133 77.6831 46.8179 77.5575 47.174C77.318 47.8505 75.5241 52.7681 75.4456 52.9778C75.3553 53.2271 75.265 53.508 75.265 53.7058C75.265 54.2122 75.6262 54.5366 76.1404 54.5366C76.5565 54.5366 76.8352 54.3506 76.9726 53.9432C77.0432 53.7374 77.2238 53.2073 77.4554 52.5268H80.5565C80.7135 52.9897 80.8666 53.4565 81.0236 53.9194C81.1531 54.2755 81.3887 54.5366 81.8793 54.5366C82.3582 54.5366 82.7665 54.1687 82.7665 53.7058C82.7665 53.4921 82.6762 53.2429 82.582 52.9739ZM77.9618 51.0353C78.3347 49.9394 78.7312 48.7644 79.0138 47.9376C79.2768 48.713 79.6458 49.8168 80.0579 51.0353H77.9618Z" fill="#0078BF"/>
<path d="M96.9176 53.5871C96.9176 54.1608 96.5526 54.5525 95.9716 54.5525C95.3867 54.5525 95.0217 54.1648 95.0217 53.5871V46.8852C95.0217 46.3116 95.3867 45.9199 95.9716 45.9199C96.5526 45.9199 96.9176 46.3076 96.9176 46.8852V53.5871Z" fill="#0078BF"/>
<path d="M70.056 54.4654C69.3809 54.4654 68.9648 54.1964 68.9648 53.3379V46.8852C68.9648 46.3116 69.3298 45.9199 69.9147 45.9199C70.4957 45.9199 70.8608 46.3076 70.8608 46.8852V52.8671H73.7852C74.1385 52.8671 74.3897 52.9344 74.5546 53.1045C74.688 53.239 74.7469 53.4289 74.7469 53.6623C74.7469 53.8957 74.688 54.0856 74.5585 54.2201C74.4054 54.3824 74.1542 54.4694 73.7852 54.4694H70.056V54.4654Z" fill="#0078BF"/>
<path d="M106.924 54.4654C106.248 54.4654 105.832 54.1964 105.832 53.3379V47.0475C105.832 46.1889 106.276 45.9199 106.951 45.9199H110.939C111.293 45.9199 111.544 45.9872 111.709 46.1573C111.842 46.2918 111.901 46.4817 111.901 46.7151C111.901 46.9446 111.842 47.1384 111.713 47.273C111.56 47.4352 111.308 47.5182 110.939 47.5182H107.728V49.4093H110.508C110.853 49.4093 111.116 49.4766 111.273 49.6309C111.41 49.7614 111.469 49.9513 111.469 50.1887C111.469 50.4261 111.41 50.612 111.277 50.7466C111.132 50.889 110.884 50.9721 110.5 50.9721H107.724V52.8592H111.026C111.379 52.8592 111.63 52.9264 111.795 53.0966C111.929 53.2311 111.987 53.421 111.987 53.6544C111.987 53.8878 111.929 54.0777 111.799 54.2122C111.646 54.3744 111.395 54.4575 111.026 54.4575H106.924V54.4654Z" fill="#0078BF"/>
<path d="M53.2316 62.6984C51.6536 62.6984 50.5977 62.3898 49.6595 61.8557C48.5918 61.2425 47.7164 60.3325 47.1433 59.2367C46.5663 58.1368 46.4053 56.9618 46.4053 55.4505V26.8231C46.4053 25.3118 46.5663 24.1328 47.1433 23.0369C47.7164 21.941 48.5957 21.0271 49.6595 20.4179C50.5977 19.8838 51.6497 19.5752 53.2316 19.5752H82.4092C83.9872 19.5752 85.0432 19.8838 85.9814 20.4179C87.0491 21.0311 87.9244 21.941 88.4975 23.0369C89.0707 24.1328 89.2355 25.3118 89.2355 26.8231V41.2713C89.2355 41.9043 88.8862 42.2366 88.3052 42.2366C87.7242 42.2366 87.4102 41.9122 87.3278 41.2713C86.7468 36.864 85.2041 33.343 82.4799 30.5578C79.3945 27.4046 75.0295 25.47 69.8479 25.47C59.4063 25.47 52.2738 33.3232 52.2738 43.1822C52.2738 48.1512 54.0874 52.6099 57.2198 55.8105C59.8931 58.5404 63.4456 60.3048 67.8224 60.7875C68.6821 60.8825 68.9647 61.2187 68.9647 61.7845C68.9647 62.0535 68.8823 62.279 68.7174 62.4373C68.5447 62.6074 68.2581 62.7023 67.8616 62.7023L53.2316 62.6984Z" fill="#0078BF"/>
</svg>
