<svg width="165" height="84" viewBox="0 0 165 84" fill="none" xmlns="http://www.w3.org/2000/svg">
<rect x="50.1598" y="51.7244" width="64.6807" height="22.8146" fill="#880016"/>
<path d="M74.007 67.2666C74.007 67.5975 73.8793 67.7576 73.6238 67.7576C73.3684 67.7576 73.2407 67.5975 73.2407 67.2666V66.893H71.8571V67.1812C71.8571 68.2806 72.5383 68.953 73.6558 68.953C74.2092 68.953 74.7094 68.7823 75.0394 68.4621C75.348 68.1845 75.4331 67.907 75.4331 67.2346V64.246H74.007V67.2666ZM79.8819 66.7756C79.8819 66.2846 79.7436 65.9751 79.4349 65.7616C79.1156 65.5375 78.6899 65.4201 78.1577 65.4201C77.5405 65.4201 77.0402 65.5802 76.7422 65.8577C76.5294 66.0712 76.4229 66.306 76.391 66.7009H77.615V66.6475C77.615 66.3807 77.8065 66.2313 78.1258 66.2313C78.4025 66.2313 78.5728 66.338 78.5728 66.5088C78.5728 66.6369 78.4558 66.7116 78.1897 66.7543L77.1892 66.9357C76.54 67.0638 76.2207 67.3733 76.2207 67.9284C76.2207 68.5047 76.7103 68.8997 77.4234 68.8997C77.8491 68.8997 78.1258 68.7929 78.5728 68.4727C78.6048 68.6222 78.626 68.6969 78.6899 68.8143H79.9883C79.9032 68.6649 79.8819 68.5688 79.8819 68.3233V66.7756ZM78.5941 67.5228C78.5941 67.8964 78.2961 68.1739 77.8917 68.1739C77.6682 68.1739 77.5085 68.0671 77.5085 67.8964C77.5085 67.811 77.5511 67.7362 77.6362 67.6829C77.7107 67.6402 77.7107 67.6402 78.0194 67.5441L78.5941 67.352V67.5228V67.5228ZM82.9152 65.4201C82.5107 65.4201 82.234 65.5268 81.9466 65.8043V65.5055H80.6801V69.8816H82.0211V68.5581C82.2979 68.8036 82.5959 68.921 82.979 68.921C83.8943 68.921 84.4903 68.2486 84.4903 67.2026C84.4903 66.1245 83.8837 65.4201 82.9152 65.4201ZM82.5639 67.939C82.1808 67.939 81.9679 67.6615 81.9679 67.1599C81.9679 66.6902 82.1914 66.4021 82.5639 66.4021C82.9258 66.4021 83.1493 66.6796 83.1493 67.1706C83.1493 67.6615 82.9258 67.939 82.5639 67.939ZM88.6624 66.7756C88.6624 66.2846 88.524 65.9751 88.2154 65.7616C87.8961 65.5375 87.4597 65.4201 86.9276 65.4201C86.3103 65.4201 85.81 65.5802 85.512 65.8577C85.2992 66.0712 85.1928 66.306 85.1608 66.7009H86.3848V66.6475C86.3848 66.3807 86.5763 66.2313 86.8956 66.2313C87.1724 66.2313 87.3426 66.338 87.3426 66.5088C87.3426 66.6369 87.2256 66.7116 86.9595 66.7543L85.9591 66.9357C85.3098 67.0638 84.9905 67.3733 84.9905 67.9284C84.9905 68.5047 85.4801 68.8997 86.1932 68.8997C86.6189 68.8997 86.8956 68.7929 87.3426 68.4727C87.3746 68.6222 87.3959 68.6969 87.4597 68.8143H88.7582C88.673 68.6649 88.6517 68.5688 88.6517 68.3233V66.7756H88.6624ZM87.3746 67.5228C87.3746 67.8964 87.0766 68.1739 86.6721 68.1739C86.4486 68.1739 86.289 68.0671 86.289 67.8964C86.289 67.811 86.3316 67.7362 86.4167 67.6829C86.4912 67.6402 86.4912 67.6402 86.7998 67.5441L87.3746 67.352V67.5228ZM91.7488 65.4201C91.3125 65.4201 91.0145 65.5588 90.7271 65.9004V65.5055H89.4606V68.8356H90.8016V67.0211C90.8016 66.6902 90.9612 66.5088 91.2593 66.5088C91.5573 66.5088 91.7063 66.6902 91.7063 67.0211V68.8356H93.0473V66.7756C93.0473 66.3167 92.9302 65.9858 92.6748 65.7616C92.4406 65.5375 92.1213 65.4201 91.7488 65.4201ZM72.1764 59.6884L71.3143 56.1768H68.6855V62.7303H70.4735V60.6703C70.4629 59.2294 70.4629 59.2081 70.4522 58.7278L71.4101 62.7197H72.9427L73.9006 58.7278L73.8793 59.8912V62.7197H75.6673V56.1768H73.0385L72.1764 59.6884ZM83.458 59.4963C83.458 57.4149 82.1169 56.0273 80.0948 56.0273C78.1045 56.0273 76.7316 57.4256 76.7316 59.4429C76.7316 61.4709 78.1045 62.8691 80.0948 62.8691C82.0637 62.8691 83.458 61.4815 83.458 59.4963ZM80.1054 61.236C79.2859 61.236 78.7644 60.5423 78.7644 59.4536C78.7644 58.3755 79.2859 57.6711 80.0948 57.6711C80.9143 57.6711 81.4358 58.3649 81.4358 59.4642C81.4358 60.5316 80.9036 61.236 80.1054 61.236ZM86.3954 57.9166H89.6522V56.1768H84.4371V62.7303H86.3954V60.4142H89.0562V58.7811H86.3954V57.9166ZM93.9626 56.1768H91.9085L89.5883 62.7303H91.6105L91.9085 61.8231H93.9626L94.2499 62.7303H96.3147L93.9626 56.1768ZM92.3661 60.3822L92.9408 58.5036L93.5156 60.3822H92.3661Z" fill="white"/>
<path d="M81.6475 10.3859C81.6475 13.9712 81.6475 17.4659 81.6475 20.9809C77.5172 21.2766 74.1364 22.9888 71.6799 26.375C70.0145 28.6714 69.2424 31.2671 69.3554 34.0953C69.6183 40.6555 74.9192 45.8886 81.6415 46.1903C81.6415 46.5265 81.6415 46.8639 81.6415 47.2562C77.0628 46.9879 73.274 45.1303 70.3535 41.5998C66.5956 37.057 65.7034 30.5457 68.6143 24.8226C68.2289 24.6282 67.8435 24.4339 67.4235 24.2216C67.3165 24.4362 67.2059 24.6425 67.1095 24.8548C65.8997 27.522 65.3929 30.3192 65.6856 33.2332C66.1531 37.8917 68.2384 41.694 71.8762 44.6259C74.1971 46.4967 76.857 47.6175 79.7965 48.0706C80.327 48.1528 80.8659 48.1934 81.4036 48.2244C81.613 48.2363 81.6701 48.2971 81.6629 48.5022C81.6475 48.9541 81.6582 49.406 81.6582 49.9139C75.6484 49.5812 70.6759 47.1775 66.9382 42.475C62.018 36.2844 61.1746 28.0585 64.785 21.1824C68.3312 14.429 74.0686 10.9725 81.6475 10.3859ZM72.1569 20.1951C73.4726 19.3653 74.7526 18.5593 76.0457 17.7437C75.9089 17.4683 75.7376 17.1094 75.5496 16.7624C75.5223 16.7112 75.389 16.6647 75.3367 16.6885C73.8842 17.3562 72.5435 18.2028 71.3171 19.2663C71.6204 19.6002 71.9166 19.9293 72.1569 20.1951Z" fill="black"/>
<path d="M88.5474 11.453C90.4341 12.0921 92.1601 12.978 93.7482 14.1298C96.8436 16.3761 99.1288 19.2663 100.557 22.8195C101.848 26.0316 102.256 29.3641 101.799 32.798C101.219 37.1667 99.3655 40.9285 96.2868 44.0548C93.3616 47.0249 89.8226 48.8885 85.7078 49.6015C84.868 49.747 84.0103 49.7911 83.1621 49.8901C82.9872 49.9103 82.9242 49.865 82.9301 49.679C82.9432 49.2736 82.9432 48.8682 82.9301 48.4628C82.9242 48.2828 82.9872 48.2375 83.1585 48.228C86.4287 48.0586 89.4134 47.0392 92.0685 45.1231C95.1984 42.8649 97.3682 39.8876 98.3639 36.1413C99.8651 30.4909 98.6874 25.3961 94.939 20.9272C93.2546 18.9194 91.1442 17.4588 88.7294 16.4405C88.6449 16.4047 88.539 16.2831 88.539 16.2009C88.5271 14.6663 88.5307 13.133 88.5319 11.5985C88.5307 11.5627 88.539 11.5245 88.5474 11.453Z" fill="black"/>
<path d="M82.9669 10.3989C83.8638 10.505 84.7524 10.5933 85.6339 10.722C86.1562 10.7984 86.6689 10.9462 87.1887 11.0452C87.4231 11.0905 87.4992 11.1894 87.498 11.4386C87.4849 13.3547 87.4944 15.2696 87.4861 17.1857C87.4849 17.3848 87.548 17.4682 87.7336 17.541C91.2988 18.9264 94.0265 21.2813 95.8608 24.652C97.4121 27.5029 97.964 30.5576 97.5846 33.7685C97.2527 36.5753 96.2022 39.1042 94.4512 41.3267C92.0339 44.3934 88.8946 46.2784 85.0713 47.0153C84.3825 47.1476 83.6759 47.1906 82.9359 47.28C82.9359 46.9068 82.924 46.5825 82.949 46.2629C82.9526 46.2152 83.1298 46.152 83.2298 46.1449C84.6454 46.0292 86.017 45.7157 87.3089 45.1278C91.5165 43.2106 94.1217 39.9949 94.864 35.4008C95.4064 32.0397 94.6046 28.942 92.5799 26.2008C90.4363 23.2975 87.5206 21.6581 83.9804 21.1013C83.6997 21.0571 83.4106 21.0643 83.1298 21.0202C83.0573 21.0094 82.9419 20.8974 82.9419 20.8318C82.9336 17.4062 82.9347 13.9795 82.9359 10.5539C82.9359 10.5301 82.9443 10.5074 82.9669 10.3989Z" fill="black"/>
</svg>
